# xmcd CD database file
#
# Track frame offsets:
#	150
#	4282
#	27335
#	49862
#	67675
#	96677
#	119505
#	146210
#	168625
#	193080
#	221327
#	240835
#	263685
#	288650
#	318320
#
# Disc length: 4440 seconds
#
# Revision: 0
# Processed by: cddbd v1.5.1PL0 Copyright (c) Steve Scherf et al.
# Submitted via: CDex 1.51
#
DISCID=e011560f
DTITLE=今井美樹 - She is
DYEAR=2004
DGENRE=JPop
TTITLE0=Introduction
TTITLE1=Rose
TTITLE2=夕陽が見える場所
TTITLE3=記憶のような、空想のような
TTITLE4=オードリーのように
TTITLE5=Another One
TTITLE6=Don't Be Afraid
TTITLE7=黄昏はまぼろし
TTITLE8=Somethin' Else
TTITLE9=Pandora
TTITLE10=おもいでに捧ぐ
TTITLE11=Shine
TTITLE12=Travellin Woman
TTITLE13=レシピ
TTITLE14=データ
EXTD=YEAR: 2004
EXTT0=
EXTT1=
EXTT2=
EXTT3=
EXTT4=
EXTT5=
EXTT6=
EXTT7=
EXTT8=
EXTT9=
EXTT10=
EXTT11=
EXTT12=
EXTT13=
EXTT14=
PLAYORDER=
